<svg width="42" height="32" fill="none" xmlns="http://www.w3.org/2000/svg"><path d="M7.521 31.823v-2.119a1.251 1.251 0 00-.362-.97 1.265 1.265 0 00-.972-.372 1.318 1.318 0 00-1.193.6 1.243 1.243 0 00-1.12-.6 1.126 1.126 0 00-.995.502v-.417h-.738v3.377h.746v-1.858a.788.788 0 01.488-.84.8.8 0 01.342-.057c.49 0 .738.318.738.89v1.879H5.2v-1.872a.791.791 0 01.49-.839.803.803 0 01.34-.058c.505 0 .746.318.746.89v1.879l.745-.015zm11.025-3.376h-1.213v-1.024h-.745v1.024h-.675v.671h.689v1.554c0 .784.305 1.25 1.178 1.25.326.001.646-.09.923-.261l-.213-.629a1.368 1.368 0 01-.653.191c-.355 0-.49-.226-.49-.565v-1.54h1.206l-.007-.67zm6.296-.085a1.004 1.004 0 00-.895.495v-.41h-.73v3.377h.738V29.93c0-.558.24-.868.71-.868.157-.003.314.026.46.084l.228-.706a1.585 1.585 0 00-.526-.092l.015.014zm-9.518.354a2.546 2.546 0 00-1.384-.354c-.858 0-1.42.41-1.42 1.081 0 .551.413.89 1.172.996l.355.05c.404.056.596.162.596.353 0 .261-.27.41-.774.41a1.812 1.812 0 01-1.128-.354l-.355.572c.43.3.945.453 1.47.438.979 0 1.546-.459 1.546-1.102 0-.642-.447-.904-1.185-1.01l-.355-.05c-.32-.042-.575-.105-.575-.331 0-.226.242-.396.646-.396a2.2 2.2 0 011.065.29l.326-.593zm19.77-.354a1.005 1.005 0 00-.895.495v-.41h-.73v3.377h.737V29.93c0-.558.242-.868.71-.868a1.19 1.19 0 01.461.084l.227-.706a1.584 1.584 0 00-.525-.092l.014.014zm-9.51 1.766a1.698 1.698 0 00.512 1.281 1.715 1.715 0 001.297.485 1.78 1.78 0 001.22-.402l-.354-.594c-.255.194-.566.3-.887.304a1.092 1.092 0 01-.713-.346 1.081 1.081 0 01.713-1.816c.32.004.632.11.887.304l.355-.593a1.78 1.78 0 00-1.221-.403 1.719 1.719 0 00-1.69 1.072c-.087.22-.128.457-.12.694v.014zm6.912 0v-1.68h-.738v.409a1.288 1.288 0 00-1.065-.495c-.47 0-.922.186-1.254.518a1.762 1.762 0 000 2.497c.332.331.784.517 1.254.517a1.293 1.293 0 001.065-.494v.41h.738v-1.682zm-2.747 0a1.018 1.018 0 01.673-.898 1.03 1.03 0 011.095.256 1.019 1.019 0 01-.739 1.723 1.023 1.023 0 01-.97-.67 1.01 1.01 0 01-.059-.41zm-8.907-1.766c-.47.007-.919.2-1.247.535a1.761 1.761 0 00.035 2.497 1.78 1.78 0 001.262.5 2.068 2.068 0 001.409-.459l-.355-.544a1.62 1.62 0 01-.987.353.944.944 0 01-1.014-.826h2.52v-.283c0-1.06-.661-1.766-1.612-1.766l-.01-.007zm0 .657a.846.846 0 01.788.5c.045.101.069.21.071.32h-1.774a.867.867 0 01.901-.82h.014zm18.492 1.116v-3.044h-.71v1.766a1.288 1.288 0 00-1.064-.495c-.47 0-.922.186-1.255.518a1.762 1.762 0 000 2.497 1.78 1.78 0 001.255.517 1.293 1.293 0 001.064-.494v.41h.71v-1.675zm1.231 1.197a.357.357 0 01.245.096.326.326 0 01-.11.544.335.335 0 01-.135.028.356.356 0 01-.319-.205.33.33 0 01.184-.438.356.356 0 01.146-.024h-.01zm0 .597a.253.253 0 00.254-.254.26.26 0 00-.07-.177.257.257 0 00-.287-.056.259.259 0 00-.085.056.26.26 0 000 .354.263.263 0 00.085.056.263.263 0 00.114.021h-.01zm.022-.42a.142.142 0 01.092.028.088.088 0 01.032.075.084.084 0 01-.025.064.125.125 0 01-.075.03l.103.117h-.081l-.096-.116h-.032v.116h-.067v-.31l.149-.004zm-.078.06v.085h.078a.074.074 0 00.042 0 .035.035 0 000-.032.035.035 0 000-.032.074.074 0 00-.042 0l-.078-.02zm-3.904-1.434a1.018 1.018 0 01.672-.899 1.03 1.03 0 011.096.257 1.019 1.019 0 01-.739 1.723 1.023 1.023 0 01-.97-.67 1.009 1.009 0 01-.059-.41zm-24.921 0v-1.688h-.739v.41a1.288 1.288 0 00-1.064-.495c-.47 0-.922.186-1.255.518a1.762 1.762 0 000 2.497 1.78 1.78 0 001.255.517 1.293 1.293 0 001.064-.494v.41h.739v-1.675zm-2.747 0a1.018 1.018 0 01.672-.899 1.03 1.03 0 011.361.78 1.016 1.016 0 01-.442 1.03 1.03 1.03 0 01-.562.17 1.022 1.022 0 01-.977-.668 1.009 1.009 0 01-.06-.413h.008z" fill="#231F20"/><path d="M26.257 2.72H15.08v19.992h11.178V2.719z" fill="#FF5F00"/><path d="M15.79 12.719a12.643 12.643 0 011.28-5.559 12.705 12.705 0 013.599-4.44A12.828 12.828 0 007.192 1.282a12.754 12.754 0 00-5.246 4.691 12.67 12.67 0 000 13.49 12.754 12.754 0 005.245 4.69 12.829 12.829 0 0013.478-1.438 12.705 12.705 0 01-3.597-4.438 12.644 12.644 0 01-1.283-5.557z" fill="#EB001B"/><path d="M41.34 12.717a12.67 12.67 0 01-1.947 6.746 12.754 12.754 0 01-5.246 4.69 12.829 12.829 0 01-13.478-1.441 12.727 12.727 0 003.596-4.44 12.665 12.665 0 000-11.114 12.726 12.726 0 00-3.596-4.439 12.828 12.828 0 0113.478-1.44 12.753 12.753 0 015.246 4.69 12.67 12.67 0 011.946 6.745v.003zm-1.222 7.876v-.41h.167V20.1h-.422v.084h.181v.41h.075zm.82 0V20.1h-.128l-.149.353-.149-.353H40.4v.494h.092v-.37l.139.32h.095l.139-.32v.374l.074-.004z" fill="#F79E1B"/></svg>