<svg width="72" height="32" fill="none" xmlns="http://www.w3.org/2000/svg"><path d="M29.926 4.442l-4.889 22.41h5.926l4.74-22.41h-5.777zm-8.593 0L15.26 19.628 12.741 6.654c-.297-1.475-1.482-2.212-2.667-2.212H.148L0 5.032c2.074.442 4.296 1.18 5.778 1.917.889.442 1.037.884 1.333 1.916l4.593 17.84h6.222l9.481-22.41h-6.074v.147zm46.074 0H62.37c-1.185 0-2.074.59-2.518 1.622l-8.74 20.788h6.073l1.185-3.39h7.408l.74 3.39h5.334l-4.445-22.41zm-7.11 14.449l3.11-8.404 1.778 8.404h-4.889zm-16.89-8.256c0-.738.741-1.622 2.519-1.917.889-.147 3.111-.147 5.778 1.032l1.037-4.718C51.407 4.59 49.48 4 47.259 4c-5.778 0-9.778 3.096-9.778 7.372 0 3.243 2.963 5.013 5.038 6.045 2.222 1.032 2.962 1.769 2.962 2.801 0 1.474-1.777 2.212-3.555 2.212-2.963 0-4.593-.738-5.926-1.475l-1.037 4.866C36.296 26.41 38.815 27 41.48 27c6.075 0 10.075-2.949 10.075-7.667 0-5.602-8.297-6.044-8.149-8.698z" fill="#1B226F"/></svg>