<svg width="39" height="40" viewBox="0 0 39 40" fill="none" xmlns="http://www.w3.org/2000/svg">
<rect y="0.5" width="39" height="39" rx="19.5" fill="#00FFD1"/>
<path d="M20.6725 15.488C22.1392 15.488 23.3199 15.928 24.2145 16.808C25.1239 17.688 25.5785 18.9933 25.5785 20.724V27.5H22.1465V21.252C22.1465 20.3133 21.9412 19.6167 21.5305 19.162C21.1199 18.6927 20.5259 18.458 19.7485 18.458C18.8832 18.458 18.1939 18.7293 17.6805 19.272C17.1672 19.8 16.9105 20.592 16.9105 21.648V27.5H13.4785V11.176H16.9105V16.896C17.3652 16.4413 17.9152 16.0967 18.5605 15.862C19.2059 15.6127 19.9099 15.488 20.6725 15.488Z" fill="black"/>
</svg>
